<svg width="6" height="10" viewBox="0 0 6 10" fill="none" xmlns="http://www.w3.org/2000/svg">
<path fill-rule="evenodd" clip-rule="evenodd" d="M0.333252 1.00001C0.333252 0.823199 0.40349 0.65363 0.528514 0.528606C0.653538 0.403582 0.823108 0.333344 0.999919 0.333344H4.99992C5.17673 0.333344 5.3463 0.403582 5.47132 0.528606C5.59635 0.65363 5.66659 0.823199 5.66659 1.00001C5.66659 1.17682 5.59635 1.34639 5.47132 1.47141C5.3463 1.59644 5.17673 1.66668 4.99992 1.66668H3.97659C4.09592 1.87301 4.18825 2.09668 4.24925 2.33334H4.99992C5.17673 2.33334 5.3463 2.40358 5.47132 2.52861C5.59635 2.65363 5.66659 2.8232 5.66659 3.00001C5.66659 3.17682 5.59635 3.34639 5.47132 3.47141C5.3463 3.59644 5.17673 3.66668 4.99992 3.66668H4.24925C4.12433 4.14884 3.86707 4.58646 3.50652 4.9301C3.14598 5.27374 2.69652 5.50971 2.20892 5.61134L4.22125 8.63034C4.27163 8.70314 4.307 8.78524 4.32531 8.87186C4.34362 8.95847 4.34449 9.04787 4.32787 9.13482C4.31126 9.22178 4.27749 9.30456 4.22854 9.37832C4.17959 9.45209 4.11644 9.51536 4.04277 9.56446C3.96911 9.61356 3.8864 9.64749 3.79948 9.66428C3.71255 9.68107 3.62316 9.68038 3.5365 9.66224C3.44985 9.64411 3.36768 9.6089 3.29478 9.55867C3.22188 9.50844 3.15972 9.44419 3.11192 9.36968L0.445252 5.36968C0.378356 5.26928 0.339957 5.15261 0.334148 5.03211C0.328339 4.91161 0.355338 4.79179 0.412267 4.68542C0.469196 4.57906 0.553921 4.49013 0.657411 4.42813C0.760901 4.36612 0.879276 4.33337 0.999919 4.33334H1.66659C2.15992 4.33334 2.59092 4.06534 2.82159 3.66668H0.999919C0.823108 3.66668 0.653538 3.59644 0.528514 3.47141C0.40349 3.34639 0.333252 3.17682 0.333252 3.00001C0.333252 2.8232 0.40349 2.65363 0.528514 2.52861C0.653538 2.40358 0.823108 2.33334 0.999919 2.33334H2.82159C2.70459 2.13056 2.53623 1.96218 2.33347 1.84515C2.13071 1.72811 1.9007 1.66656 1.66659 1.66668H0.999919C0.823108 1.66668 0.653538 1.59644 0.528514 1.47141C0.40349 1.34639 0.333252 1.17682 0.333252 1.00001Z" fill="black" fill-opacity="0.5"/>
</svg>
